<svg width="132" height="39" viewBox="0 0 132 39" fill="none" xmlns="http://www.w3.org/2000/svg">
<path d="M59.1754 11.9209C59.1754 12.2596 59.0797 12.5689 58.8882 12.8487L50.6922 24.4247H58.9876V26.7995H46.8373V25.6286C46.8373 25.4814 46.8631 25.3415 46.9146 25.2089C46.9661 25.069 47.0324 24.9401 47.1134 24.8223L55.3315 13.1911H47.3564V10.8273H59.1754V11.9209ZM63.9249 15.4666V26.7995H61.1855V15.4666H63.9249ZM64.3004 12.1639C64.3004 12.3995 64.2526 12.6204 64.1568 12.8266C64.0611 13.0328 63.9322 13.2132 63.7702 13.3679C63.6156 13.5225 63.4315 13.6477 63.218 13.7434C63.0044 13.8318 62.7761 13.876 62.5331 13.876C62.2975 13.876 62.0729 13.8318 61.8593 13.7434C61.6531 13.6477 61.4727 13.5225 61.3181 13.3679C61.1634 13.2132 61.0383 13.0328 60.9425 12.8266C60.8542 12.6204 60.81 12.3995 60.81 12.1639C60.81 11.9209 60.8542 11.6926 60.9425 11.479C61.0383 11.2655 61.1634 11.0814 61.3181 10.9268C61.4727 10.7721 61.6531 10.6506 61.8593 10.5622C62.0729 10.4665 62.2975 10.4187 62.5331 10.4187C62.7761 10.4187 63.0044 10.4665 63.218 10.5622C63.4315 10.6506 63.6156 10.7721 63.7702 10.9268C63.9322 11.0814 64.0611 11.2655 64.1568 11.479C64.2526 11.6926 64.3004 11.9209 64.3004 12.1639ZM69.4346 23.8613C69.7439 24.2369 70.079 24.502 70.4398 24.6566C70.808 24.8113 71.2056 24.8886 71.6327 24.8886C72.0451 24.8886 72.417 24.8113 72.7484 24.6566C73.0797 24.502 73.3596 24.2663 73.5878 23.9497C73.8235 23.6331 74.0039 23.2354 74.1291 22.7568C74.2543 22.2707 74.3169 21.7 74.3169 21.0447C74.3169 20.3819 74.2616 19.8223 74.1512 19.3657C74.0481 18.9018 73.8971 18.5262 73.6983 18.239C73.4995 17.9519 73.2565 17.742 72.9693 17.6094C72.6895 17.4769 72.3691 17.4106 72.0083 17.4106C71.4413 17.4106 70.959 17.5321 70.5613 17.7751C70.1637 18.0108 69.7881 18.3458 69.4346 18.7803V23.8613ZM69.291 17.013C69.755 16.4901 70.2815 16.0667 70.8706 15.7427C71.4597 15.4187 72.1519 15.2567 72.9472 15.2567C73.5658 15.2567 74.1291 15.3856 74.6372 15.6433C75.1527 15.901 75.5945 16.2766 75.9627 16.77C76.3382 17.256 76.6254 17.8598 76.8242 18.5815C77.0304 19.2958 77.1335 20.1168 77.1335 21.0447C77.1335 21.8915 77.0194 22.6758 76.7911 23.3974C76.5628 24.1191 76.2351 24.745 75.808 25.2752C75.3883 25.8054 74.8765 26.2214 74.2727 26.5234C73.6762 26.8179 73.0061 26.9652 72.2624 26.9652C71.6291 26.9652 71.0878 26.8695 70.6386 26.678C70.1894 26.4792 69.7881 26.2067 69.4346 25.8606V30.4998H66.7063V15.4666H68.3742C68.7277 15.4666 68.9597 15.6322 69.0701 15.9636L69.291 17.013ZM80.8817 26.8326C80.7565 27.1714 80.554 27.4254 80.2741 27.5948C80.0017 27.7642 79.7219 27.8488 79.4347 27.8488H78.2749L84.7256 11.3465C84.8434 11.0372 85.0238 10.8016 85.2668 10.6396C85.5098 10.4702 85.7933 10.3855 86.1173 10.3855H87.2882L80.8817 26.8326Z" fill="#474957"/>
<path d="M107.277 10.7721V26.7995H104.35V16.9577C104.35 16.7515 104.354 16.5306 104.361 16.295C104.376 16.0593 104.398 15.82 104.427 15.577L99.8432 24.27C99.5929 24.7487 99.2063 24.988 98.6834 24.988H98.2195C97.9618 24.988 97.7335 24.9291 97.5347 24.8113C97.3359 24.6861 97.1775 24.5057 97.0597 24.27L92.4536 15.5439C92.4757 15.8016 92.4941 16.052 92.5089 16.295C92.5236 16.5306 92.531 16.7515 92.531 16.9577V26.7995H89.6038V10.7721H92.1223C92.2622 10.7721 92.3874 10.7758 92.4978 10.7832C92.6083 10.7905 92.704 10.8126 92.785 10.8494C92.8734 10.8789 92.9507 10.9304 93.017 11.0041C93.0906 11.0703 93.1606 11.1661 93.2268 11.2913L97.7114 19.8407C97.8513 20.0984 97.9802 20.3635 98.098 20.636C98.2232 20.9084 98.341 21.1883 98.4515 21.4754C98.5619 21.1809 98.6761 20.8937 98.7939 20.6139C98.9191 20.3341 99.0516 20.0653 99.1915 19.8075L103.643 11.2913C103.709 11.1661 103.779 11.0703 103.853 11.0041C103.926 10.9304 104.004 10.8789 104.085 10.8494C104.173 10.8126 104.269 10.7905 104.372 10.7832C104.482 10.7758 104.611 10.7721 104.759 10.7721H107.277ZM115.892 22.0388C115.148 22.0756 114.529 22.1419 114.036 22.2376C113.543 22.326 113.149 22.4438 112.854 22.5911C112.567 22.7383 112.361 22.9077 112.236 23.0992C112.118 23.2833 112.059 23.4858 112.059 23.7067C112.059 24.1485 112.18 24.4615 112.423 24.6456C112.674 24.8297 113.02 24.9217 113.462 24.9217C113.97 24.9217 114.408 24.8334 114.776 24.6566C115.152 24.4725 115.523 24.189 115.892 23.8061V22.0388ZM109.684 16.9909C110.354 16.387 111.094 15.9378 111.904 15.6433C112.714 15.3414 113.59 15.1904 114.533 15.1904C115.211 15.1904 115.814 15.3009 116.345 15.5218C116.882 15.7427 117.335 16.052 117.703 16.4496C118.079 16.8399 118.366 17.3075 118.565 17.8524C118.764 18.3974 118.863 18.9938 118.863 19.6419V26.7995H117.471C117.184 26.7995 116.963 26.759 116.808 26.678C116.661 26.597 116.54 26.4276 116.444 26.1699L116.201 25.4409C115.914 25.6912 115.634 25.9122 115.361 26.1036C115.096 26.2951 114.82 26.4571 114.533 26.5896C114.246 26.7148 113.937 26.8105 113.605 26.8768C113.281 26.9431 112.917 26.9762 112.512 26.9762C112.011 26.9762 111.554 26.91 111.142 26.7774C110.73 26.6449 110.372 26.4497 110.071 26.192C109.776 25.9269 109.548 25.5992 109.386 25.2089C109.224 24.8186 109.143 24.3694 109.143 23.8613C109.143 23.4416 109.25 23.0219 109.463 22.6021C109.677 22.1824 110.041 21.8031 110.557 21.4644C111.079 21.1183 111.772 20.8348 112.633 20.6139C113.502 20.3856 114.588 20.2567 115.892 20.2273V19.6419C115.892 18.9276 115.741 18.4047 115.439 18.0734C115.137 17.7346 114.702 17.5653 114.135 17.5653C113.716 17.5653 113.366 17.6168 113.086 17.7199C112.806 17.8156 112.56 17.9224 112.346 18.0402C112.14 18.1507 111.945 18.2575 111.761 18.3605C111.576 18.4563 111.363 18.5041 111.12 18.5041C110.906 18.5041 110.726 18.4526 110.579 18.3495C110.439 18.239 110.321 18.1102 110.225 17.9629L109.684 16.9909ZM124.38 15.4113V26.7995H121.331V15.4113H124.38ZM124.744 12.1749C124.744 12.4327 124.693 12.672 124.59 12.8929C124.486 13.1138 124.347 13.309 124.17 13.4783C124 13.6477 123.798 13.7802 123.562 13.876C123.334 13.9717 123.087 14.0196 122.822 14.0196C122.572 14.0196 122.333 13.9717 122.104 13.876C121.883 13.7802 121.688 13.6477 121.519 13.4783C121.349 13.309 121.213 13.1138 121.11 12.8929C121.014 12.672 120.967 12.4327 120.967 12.1749C120.967 11.9172 121.014 11.6779 121.11 11.457C121.213 11.2287 121.349 11.0298 121.519 10.8605C121.688 10.6911 121.883 10.5586 122.104 10.4628C122.333 10.3671 122.572 10.3192 122.822 10.3192C123.087 10.3192 123.334 10.3671 123.562 10.4628C123.798 10.5586 124 10.6911 124.17 10.8605C124.347 11.0298 124.486 11.2287 124.59 11.457C124.693 11.6779 124.744 11.9172 124.744 12.1749ZM130.052 10.3303V26.7995H127.003V10.3303H130.052Z" fill="#383941"/>
<path d="M6.39937 22.3978C6.09662 22.3988 5.79979 22.3139 5.54338 22.153C5.28696 21.992 5.08147 21.7616 4.95079 21.4885C4.82011 21.2155 4.76959 20.9109 4.80512 20.6102C4.84065 20.3096 4.96076 20.0252 5.15149 19.7901L20.9899 3.47167C21.1087 3.33453 21.2706 3.24186 21.4491 3.20886C21.6275 3.17587 21.8118 3.20451 21.9718 3.29009C22.1318 3.37567 22.2579 3.5131 22.3295 3.67982C22.4011 3.84654 22.4139 4.03265 22.3658 4.20759L19.2941 13.8386C19.2035 14.0811 19.1731 14.3418 19.2055 14.5986C19.2378 14.8553 19.3319 15.1004 19.4798 15.3128C19.6277 15.5252 19.8249 15.6985 20.0545 15.8179C20.284 15.9373 20.5392 15.9993 20.7979 15.9984H31.9968C32.2996 15.9974 32.5964 16.0823 32.8528 16.2432C33.1093 16.4042 33.3147 16.6346 33.4454 16.9077C33.5761 17.1808 33.6266 17.4853 33.5911 17.786C33.5556 18.0867 33.4355 18.3711 33.2447 18.6062L17.4063 34.9246C17.2875 35.0617 17.1256 35.1544 16.9472 35.1874C16.7687 35.2204 16.5844 35.1917 16.4244 35.1061C16.2644 35.0206 16.1383 34.8831 16.0667 34.7164C15.9951 34.5497 15.9823 34.3636 16.0304 34.1886L19.1021 24.5576C19.1927 24.3152 19.2231 24.0544 19.1908 23.7977C19.1584 23.5409 19.0643 23.2958 18.9164 23.0835C18.7685 22.8711 18.5713 22.6977 18.3417 22.5783C18.1122 22.4589 17.857 22.397 17.5983 22.3978H6.39937Z" stroke="#383941" stroke-width="3.19969" stroke-linecap="round" stroke-linejoin="round"/>
</svg>
